<?xml version="1.0" standalone="no"?>
<!DOCTYPE svg PUBLIC "-//W3C//DTD SVG 20010904//EN"
 "http://www.w3.org/TR/2001/REC-SVG-20010904/DTD/svg10.dtd">
<svg version="1.0" xmlns="http://www.w3.org/2000/svg"
 width="16.000000pt" height="16.000000pt" viewBox="0 0 16.000000 16.000000"
 preserveAspectRatio="xMidYMid meet">
<metadata>
Created by potrace 1.11, written by Peter Selinger 2001-2013
</metadata>
<g transform="translate(0.000000,16.000000) scale(0.002286,-0.002286)"
fill="#000000" stroke="none">
<path d="M1644 5461 c-2 -2 -4 -12 -4 -22 0 -13 11 -19 44 -24 57 -9 102 -37
110 -69 4 -16 -19 -132 -64 -323 -39 -164 -87 -365 -106 -448 -20 -82 -43
-163 -53 -180 -19 -34 -68 -62 -126 -70 -57 -9 -65 -12 -65 -32 0 -17 25 -18
477 -18 l477 0 19 50 c11 28 39 96 63 153 39 91 46 132 25 132 -15 0 -39 -26
-70 -78 -61 -97 -152 -163 -256 -187 -63 -14 -294 -12 -322 3 -34 19 -33 57 8
231 22 91 41 175 44 186 4 19 42 175 49 205 2 8 21 87 41 175 21 88 46 176 56
196 19 39 60 61 136 74 44 7 67 24 55 40 -7 10 -529 15 -538 6z"/>
<path d="M3795 5043 c-12 -2 -26 -17 -32 -33 -11 -29 -13 -30 -57 -24 -63 9
-125 -11 -210 -66 -245 -162 -435 -489 -363 -626 46 -88 169 -54 309 86 43 43
78 78 78 77 0 -1 -7 -20 -15 -42 -47 -130 15 -206 124 -153 81 39 233 200 216
228 -12 19 -24 10 -99 -66 -77 -79 -103 -88 -92 -31 5 24 174 425 247 586 27
59 21 71 -38 70 -26 -1 -57 -4 -68 -6z m-98 -117 c38 -38 -63 -246 -196 -406
-109 -129 -169 -167 -211 -132 -86 73 70 378 260 505 57 39 126 54 147 33z"/>
<path d="M2895 5027 c-16 -5 -50 -24 -75 -41 -196 -133 -333 -458 -262 -619
76 -172 265 -159 401 27 45 62 53 80 39 94 -8 8 -26 -3 -62 -41 -51 -52 -101
-77 -159 -77 -66 0 -94 79 -78 225 1 6 13 10 29 11 128 4 282 95 331 197 40
83 31 177 -22 212 -31 20 -102 26 -142 12z m49 -93 c53 -53 -17 -200 -119
-248 -42 -20 -115 -32 -115 -18 0 26 43 143 70 190 47 80 124 116 164 76z"/>
<path d="M4148 5021 c-40 -19 -183 -161 -193 -191 -4 -13 -2 -27 5 -34 8 -8
28 7 79 62 79 84 97 90 87 32 -7 -43 -16 -72 -126 -394 -41 -121 -67 -213 -62
-218 13 -13 73 -17 100 -7 21 8 47 56 133 244 18 39 63 122 116 215 43 74 105
150 133 165 24 12 30 12 57 -5 17 -10 34 -23 37 -29 4 -6 22 -11 41 -11 79 0
106 132 35 170 -93 50 -192 -15 -309 -200 -22 -36 -41 -60 -41 -54 0 5 4 14 8
20 25 28 53 169 40 205 -16 45 -80 59 -140 30z"/>
<path d="M4838 5020 c-42 -22 -142 -118 -177 -168 -22 -31 -22 -35 -7 -50 15
-15 19 -13 48 23 86 106 134 129 117 57 -4 -20 -51 -162 -103 -314 -75 -221
-91 -279 -81 -288 20 -16 66 -19 104 -6 31 10 36 19 66 101 29 82 94 205 156
296 13 20 41 60 61 90 43 64 105 131 134 147 29 15 62 4 66 -22 5 -25 -17
-104 -42 -161 -11 -22 -31 -69 -45 -105 -15 -36 -33 -78 -40 -95 -53 -117 -78
-207 -65 -240 10 -27 53 -44 95 -38 42 6 130 66 193 132 57 61 70 87 52 105
-8 8 -26 -4 -70 -51 -117 -123 -133 -105 -62 69 28 68 71 173 96 233 25 61 48
131 51 156 13 94 -44 158 -128 145 -84 -14 -184 -102 -288 -256 -27 -40 -49
-70 -49 -66 0 4 13 45 30 91 37 107 45 177 22 205 -25 30 -88 34 -134 10z"/>
<path d="M2400 3453 l0 -123 170 0 170 0 1 58 c2 122 1 174 -5 179 -3 4 -80 7
-171 7 l-165 1 0 -122z"/>
<path d="M3710 2945 l0 -630 164 0 163 0 -1 53 c-1 28 0 52 2 52 2 0 24 -17
50 -39 90 -75 167 -96 287 -80 120 16 245 109 299 223 80 168 73 396 -15 541
-132 218 -409 269 -578 105 -22 -22 -42 -36 -44 -32 -2 4 -3 103 -2 220 1 116
-1 212 -4 213 -3 0 -77 2 -164 2 l-157 2 0 -630z m611 15 c54 -36 84 -97 84
-173 0 -78 -8 -108 -41 -147 -89 -105 -244 -87 -308 36 -27 51 -29 164 -3 211
26 48 67 82 116 97 54 16 104 8 152 -24z"/>
<path d="M1180 3522 l-45 -3 0 -602 0 -602 165 0 165 0 5 159 5 158 55 63 c51
60 56 63 71 47 9 -9 74 -102 144 -207 71 -104 134 -197 141 -205 10 -13 46
-15 206 -15 138 1 192 4 191 12 -2 7 -102 156 -223 333 -122 176 -223 327
-226 334 -3 8 12 34 33 57 21 24 52 59 68 78 17 18 35 39 40 45 137 151 296
338 292 342 -4 5 -193 7 -343 5 l-41 -1 -204 -240 -204 -240 -3 240 c-2 182
-5 240 -15 241 -57 2 -241 3 -277 1z"/>
<path d="M3459 3251 c-66 -21 -101 -50 -150 -125 l-39 -59 0 91 0 91 -162 -2
-163 -2 0 -465 0 -465 163 0 162 0 1 155 c1 218 6 256 44 329 39 76 113 113
236 120 14 1 16 22 16 171 l0 170 -41 -1 c-23 0 -53 -4 -67 -8z"/>
<path d="M2409 3187 c0 -76 0 -812 0 -847 l1 -25 162 0 163 0 1 455 c0 250 -2
460 -4 467 -2 8 -52 11 -163 12 l-159 1 -1 -63z"/>
<path d="M4849 3202 c104 -262 244 -611 251 -627 5 -11 29 -70 54 -132 43
-109 43 -112 25 -129 -26 -23 -84 -21 -147 6 -29 13 -54 21 -56 19 -5 -7 -96
-215 -96 -221 0 -8 116 -59 148 -65 134 -25 222 -22 294 9 64 27 132 104 173
193 32 69 375 976 375 990 0 7 -316 4 -327 -3 -7 -4 -32 -75 -58 -157 -25 -83
-54 -175 -64 -205 -10 -30 -27 -83 -37 -117 -10 -35 -20 -63 -23 -63 -3 0 -46
123 -96 273 l-90 272 -172 2 -172 2 18 -47z"/>
<path d="M1078 1743 c-3 -7 -2 -187 1 -203 1 -3 1091 -5 2423 -5 l2422 0 1 95
c0 52 -1 101 -3 108 -3 9 -497 12 -2422 12 -1331 0 -2420 -3 -2422 -7z"/>
</g>
</svg>
