<?xml version="1.0" encoding="UTF-8" standalone="no"?>
<svg width="181px" height="148px" viewBox="0 0 181 148" version="1.1" xmlns="http://www.w3.org/2000/svg" xmlns:xlink="http://www.w3.org/1999/xlink">
    <!-- Generator: Sketch 39.1 (31720) - http://www.bohemiancoding.com/sketch -->
    <title>Logo</title>
    <desc>Created with Sketch.</desc>
    <defs></defs>
    <g id="Symbols" stroke="none" stroke-width="1" fill="none" fill-rule="evenodd">
        <g id="Logo">
            <path d="M52.328,33.864 C50.4079904,37.938687 48.8613392,41.7786486 47.688,45.384 C39.9012944,45.1279987 34.1306854,45 30.376,45 C26.2799795,45 20.328039,45.1279987 12.52,45.384 C12.2639987,45.384 12.136,45.1920019 12.136,44.808 C12.136,44.5306653 12.2159992,44.2693346 12.376,44.024 C12.5360008,43.7786654 12.711999,43.6453334 12.904,43.624 C14.6106752,43.431999 15.9386619,43.1760016 16.888,42.856 C17.8373381,42.5359984 18.5466643,42.1040027 19.016,41.56 C19.4853357,41.0159973 19.9226646,39.9013418 20.328,38.216 L27.496,8.104 C27.7093344,7.16532864 27.816,6.44000256 27.816,5.928 C27.816,4.94666176 27.3946709,4.22133568 26.552,3.752 C25.7093291,3.28266432 24.2320106,2.92000128 22.12,2.664 C21.9066656,2.664 21.8,2.49333504 21.8,2.152 C21.8,1.85333184 21.8799992,1.56533472 22.04,1.288 C22.2000008,1.01066528 22.375999,0.872 22.568,0.872 C24.0400074,0.872 25.8533226,0.93599936 28.008,1.064 C29.8426758,1.19200064 31.293328,1.256 32.36,1.256 C33.426672,1.256 34.8879907,1.19200064 36.744,1.064 C38.7920102,0.93599936 40.4879933,0.872 41.832,0.872 C42.0453344,0.872 42.152,1.0853312 42.152,1.512 C42.152,1.78933472 42.0720008,2.05066544 41.912,2.296 C41.7519992,2.54133456 41.576001,2.664 41.384,2.664 C39.6773248,2.85600096 38.3546714,3.11733168 37.416,3.448 C36.4773286,3.77866832 35.7733357,4.210664 35.304,4.744 C34.8346643,5.277336 34.4080019,6.3973248 34.024,8.104 L26.856,38.216 C26.5999987,39.3253389 26.472,40.050665 26.472,40.392 C26.472,42.0986752 27.4746566,42.952 29.48,42.952 L37.224,42.952 C39.89068,42.952 42.3759885,42.1093418 44.68,40.424 C46.9840115,38.7386582 48.935992,36.3600154 50.536,33.288 C50.6853341,33.0319987 50.9519981,32.904 51.336,32.904 C52.0186701,32.904 52.36,33.1493309 52.36,33.64 L52.328,33.864 Z M75.656,21.64 C75.656,24.5626813 74.2053478,27.1919883 71.304,29.528 C68.4026522,31.8640117 65.0320192,33.032 61.192,33.032 C61.0639994,34.3120064 61,35.4639949 61,36.488 C61,38.3653427 61.2613307,39.7093293 61.784,40.52 C62.3066693,41.3306707 63.1759939,41.736 64.392,41.736 C67.1226803,41.736 69.5439894,40.1680157 71.656,37.032 L71.848,36.936 C72.0186675,36.936 72.199999,37.0479989 72.392,37.272 C72.584001,37.4960011 72.68,37.703999 72.68,37.896 C72.68,38.3440022 72.0293398,39.4106582 70.728,41.096 C69.4266602,42.7813418 68.0560072,44.0879954 66.616,45.016 C65.1759928,45.9440046 63.7733402,46.408 62.408,46.408 C60.3173229,46.408 58.6000067,45.6026747 57.256,43.992 C55.9119933,42.3813253 55.24,40.4773443 55.24,38.28 C55.24,35.2079846 56.0453253,31.9973501 57.656,28.648 C59.2666747,25.2986499 61.3253208,22.4933446 63.832,20.232 C66.3386792,17.9706554 68.658656,16.84 70.792,16.84 C72.3280077,16.84 73.5226624,17.2719957 74.376,18.136 C75.2293376,19.0000043 75.656,20.1679926 75.656,21.64 L75.656,21.64 Z M71.112,22.728 C71.112,20.935991 70.3226746,20.04 68.744,20.04 C67.2079923,20.04 65.7680067,21.0853229 64.424,23.176 C63.0799933,25.2666771 62.1306694,27.8693178 61.576,30.984 C63.368009,30.984 64.9626597,30.6053371 66.36,29.848 C67.7573403,29.0906629 68.8986622,28.0026738 69.784,26.584 C70.6693378,25.1653262 71.112,23.8800058 71.112,22.728 L71.112,22.728 Z M106.6,17.416 L97.512,38.408 C96.8719968,39.8586739 96.552,40.9039968 96.552,41.544 C96.552,42.0560026 96.7653312,42.312 97.192,42.312 C97.8106698,42.312 99.1973226,41.0213462 101.352,38.44 C102.333338,37.2666608 102.887999,36.68 103.016,36.68 C103.272001,36.68 103.506666,36.8026654 103.72,37.048 C103.933334,37.2933346 104.04,37.5333322 104.04,37.768 C104.04,38.0666682 103.261341,39.0906579 101.704,40.84 C100.146659,42.5893421 98.6693403,43.9546618 97.272,44.936 C95.8746597,45.9173382 94.6960048,46.408 93.736,46.408 C91.602656,46.408 90.536,45.4053434 90.536,43.4 C90.536,41.5226573 91.431991,38.9200166 93.224,35.592 C91.6666589,38.4933478 89.592013,41.0213226 87,43.176 C84.407987,45.3306774 82.1520096,46.408 80.232,46.408 C79.1439946,46.408 78.2853365,45.9920042 77.656,45.16 C77.0266635,44.3279958 76.712,43.1866739 76.712,41.736 C76.712,38.9413194 77.8853216,35.7360181 80.232,32.12 C82.5786784,28.5039819 85.4586496,25.3413469 88.872,22.632 C92.2853504,19.9226531 95.1439885,18.568 97.448,18.568 C98.5786723,18.568 99.4959965,18.8026643 100.2,19.272 L100.968,17.416 C101.288002,16.690663 102.397324,16.328 104.296,16.328 C105.853341,16.328 106.632,16.6266637 106.632,17.224 L106.6,17.416 Z M98.664,22.472 C98.664,21.1919936 98.1946714,20.552 97.256,20.552 C95.4426576,20.552 93.3626784,21.5599899 91.016,23.576 C88.6693216,25.5920101 86.6160088,28.0719853 84.856,31.016 C83.0959912,33.9600147 82.216,36.402657 82.216,38.344 C82.216,39.4960058 82.3973315,40.3173309 82.76,40.808 C83.1226685,41.2986691 83.7306624,41.544 84.584,41.544 C85.6720054,41.544 87.3519886,40.3013458 89.624,37.816 C91.8960114,35.3306542 93.9706573,32.5093491 95.848,29.352 C97.7253427,26.1946509 98.664,23.9013405 98.664,22.472 L98.664,22.472 Z M133.128,20.424 C133.128,21.490672 132.829336,22.3439968 132.232,22.984 C131.634664,23.6240032 130.909338,23.944 130.056,23.944 C129.287996,23.944 128.552004,23.5493373 127.848,22.76 C127.250664,22.0986634 126.685336,21.768 126.152,21.768 C124.829327,21.768 122.85068,23.9333117 120.216,28.264 C117.58132,32.5946883 114.866681,38.0239674 112.072,44.552 C111.773332,45.277337 110.813341,45.64 109.192,45.64 C108.637331,45.64 108.130669,45.5493342 107.672,45.368 C107.213331,45.1866658 106.984,44.9680013 106.984,44.712 L107.016,44.552 L113.736,24.84 C114.290669,23.1759917 114.568,22.1306688 114.568,21.704 C114.568,21.1919974 114.354669,20.936 113.928,20.936 C113.24533,20.936 112.029342,22.0879885 110.28,24.392 C109.426662,25.5013389 108.914668,26.056 108.744,26.056 C108.445332,26.056 108.189334,25.9333346 107.976,25.688 C107.762666,25.4426654 107.656,25.2026678 107.656,24.968 C107.656,24.6693318 108.359993,23.7040082 109.768,22.072 C111.176007,20.4399918 112.535993,19.1600046 113.848,18.232 C115.160007,17.3039954 116.295995,16.84 117.256,16.84 C119.474678,16.84 120.584,17.7999904 120.584,19.72 C120.584,20.786672 120.24267,22.3013235 119.56,24.264 L118.344,27.72 C122.397354,20.4666304 125.959985,16.84 129.032,16.84 C130.226673,16.84 131.207996,17.1653301 131.976,17.816 C132.744004,18.4666699 133.128,19.3359946 133.128,20.424 L133.128,20.424 Z M161.224,21.064 C161.224,22.4933405 160.776004,24.2639894 159.88,26.376 L154.824,38.408 C154.098663,40.1573421 153.736,41.202665 153.736,41.544 C153.736,42.0560026 153.927998,42.312 154.312,42.312 C155.080004,42.312 156.434657,41.149345 158.376,38.824 C159.250671,37.7786614 159.773332,37.256 159.944,37.256 C160.200001,37.256 160.423999,37.3733322 160.616,37.608 C160.808001,37.8426678 160.904,38.0879987 160.904,38.344 C160.904,38.7066685 160.157341,39.6826587 158.664,41.272 C157.170659,42.8613413 155.70934,44.1146621 154.28,45.032 C152.85066,45.9493379 151.624005,46.408 150.6,46.408 C149.682662,46.408 148.952003,46.2000021 148.408,45.784 C147.863997,45.3679979 147.592,44.7866704 147.592,44.04 C147.592,42.8239939 148.061329,41.1173443 149,38.92 L154.184,26.568 C154.781336,25.1813264 155.08,24.0293379 155.08,23.112 C155.08,21.9173274 154.589338,21.32 153.608,21.32 C152.413327,21.32 150.648012,22.8666512 148.312,25.96 C145.975988,29.0533488 143.368014,33.2239738 140.488,38.472 L138.376,44.552 C138.269333,44.8506682 137.87467,45.1066656 137.192,45.32 C136.50933,45.5333344 135.837337,45.64 135.176,45.64 C134.55733,45.64 133.992003,45.5493342 133.48,45.368 C132.967997,45.1866658 132.712,44.9680013 132.712,44.712 L132.744,44.552 L139.4,24.84 C139.954669,23.3679926 140.232,22.3226698 140.232,21.704 C140.232,21.1919974 140.040002,20.936 139.656,20.936 C138.97333,20.936 137.768009,22.0559888 136.04,24.296 C135.143996,25.4693392 134.600001,26.056 134.408,26.056 C134.130665,26.056 133.890668,25.9333346 133.688,25.688 C133.485332,25.4426654 133.384,25.2026678 133.384,24.968 C133.384,24.6693318 134.087993,23.7040082 135.496,22.072 C136.904007,20.4399918 138.263993,19.1600046 139.576,18.232 C140.888007,17.3039954 142.023995,16.84 142.984,16.84 C145.160011,16.84 146.248,17.7999904 146.248,19.72 C146.248,20.8933392 145.928003,22.4079907 145.288,24.264 L143.368,29.704 C145.821346,25.629313 148.237321,22.4666779 150.616,20.216 C152.994679,17.9653221 155.165324,16.84 157.128,16.84 C158.280006,16.84 159.250663,17.2346627 160.04,18.024 C160.829337,18.8133373 161.224,19.8266605 161.224,21.064 L161.224,21.064 Z" id="Learn" fill="#000000"></path>
            <path d="M3.148,118 L15.564,118 L15.564,106.416 L20.108,101.36 L31.372,118 L46.284,118 L28.748,92.464 L45.708,73.2 L30.988,73.2 L15.564,91.376 L15.564,73.2 L3.148,73.2 L3.148,118 Z M50.164,80.24 L62.836,80.24 L62.836,71.28 L50.164,71.28 L50.164,80.24 Z M50.42,118 L62.58,118 L62.58,83.376 L50.42,83.376 L50.42,118 Z M70.364,118 L82.524,118 L82.524,107.248 C82.524,99.248 86.108,95.6 92.444,95.6 L93.468,95.6 L93.468,82.8 C87.708,82.544 84.508,85.616 82.524,90.352 L82.524,83.376 L70.364,83.376 L70.364,118 Z M121.476,118.768 C129.668,118.768 136.772,111.92 136.772,100.656 L136.772,100.528 C136.772,89.456 129.668,82.608 121.412,82.608 C116.228,82.608 113.284,85.104 110.916,87.984 L110.916,71.28 L98.756,71.28 L98.756,118 L110.916,118 L110.916,113.776 C113.156,116.4 116.228,118.768 121.476,118.768 L121.476,118.768 Z M117.7,108.592 C113.796,108.592 110.66,105.328 110.66,100.72 L110.66,100.592 C110.66,96.048 113.796,92.784 117.7,92.784 C121.668,92.784 124.804,96.048 124.804,100.592 L124.804,100.72 C124.804,105.392 121.668,108.592 117.7,108.592 L117.7,108.592 Z M153.26,128.432 C160.172,128.432 163.436,125.232 166.444,117.168 L179.116,83.376 L166.636,83.376 L160.108,104.24 L153.196,83.376 L140.46,83.376 L154.028,117.36 C153.26,118.448 152.428,118.768 151.212,118.768 C149.868,118.768 147.82,118.064 145.9,116.912 L142.124,125.424 C145.324,127.216 148.972,128.432 153.26,128.432 L153.26,128.432 Z" id="Kirby" fill="#000000"></path>
            <rect id="Rectangle-2" fill="#D0011B" transform="translate(90.500000, 143.000000) scale(1, -1) translate(-90.500000, -143.000000) " x="0" y="139" width="181" height="8"></rect>
        </g>
    </g>
</svg>