<svg xmlns="http://www.w3.org/2000/svg" width="260" height="260" viewBox="0 0 260 260">
  <g fill="none" fill-rule="evenodd" transform="translate(40 57)">
    <path fill="#000000" d="M51.328 32.864C49.4079904 36.938687 47.8613392 40.7786486 46.688 44.384 38.9012944 44.1279987 33.1306854 44 29.376 44 25.2799795 44 19.328039 44.1279987 11.52 44.384 11.2639987 44.384 11.136 44.1920019 11.136 43.808 11.136 43.5306653 11.2159992 43.2693346 11.376 43.024 11.5360008 42.7786654 11.711999 42.6453334 11.904 42.624 13.6106752 42.431999 14.9386619 42.1760016 15.888 41.856 16.8373381 41.5359984 17.5466643 41.1040027 18.016 40.56 18.4853357 40.0159973 18.9226646 38.9013418 19.328 37.216L26.496 7.104C26.7093344 6.16532864 26.816 5.44000256 26.816 4.928 26.816 3.94666176 26.3946709 3.22133568 25.552 2.752 24.7093291 2.28266432 23.2320106 1.92000128 21.12 1.664 20.9066656 1.664 20.8 1.49333504 20.8 1.152 20.8.85333184 20.8799992.56533472 21.04.288 21.2000008.01066528 21.375999-.128 21.568-.128 23.0400074-.128 24.8533226-.06400064 27.008.064 28.8426758.19200064 30.293328.256 31.36.256 32.426672.256 33.8879907.19200064 35.744.064 37.7920102-.06400064 39.4879933-.128 40.832-.128 41.0453344-.128 41.152.0853312 41.152.512 41.152.78933472 41.0720008 1.05066544 40.912 1.296 40.7519992 1.54133456 40.576001 1.664 40.384 1.664 38.6773248 1.85600096 37.3546714 2.11733168 36.416 2.448 35.4773286 2.77866832 34.7733357 3.210664 34.304 3.744 33.8346643 4.277336 33.4080019 5.3973248 33.024 7.104L25.856 37.216C25.5999987 38.3253389 25.472 39.050665 25.472 39.392 25.472 41.0986752 26.4746566 41.952 28.48 41.952L36.224 41.952C38.89068 41.952 41.3759885 41.1093418 43.68 39.424 45.9840115 37.7386582 47.935992 35.3600154 49.536 32.288 49.6853341 32.0319987 49.9519981 31.904 50.336 31.904 51.0186701 31.904 51.36 32.1493309 51.36 32.64L51.328 32.864zM74.656 20.64C74.656 23.5626813 73.2053478 26.1919883 70.304 28.528 67.4026522 30.8640117 64.0320192 32.032 60.192 32.032 60.0639994 33.3120064 60 34.4639949 60 35.488 60 37.3653427 60.2613307 38.7093293 60.784 39.52 61.3066693 40.3306707 62.1759939 40.736 63.392 40.736 66.1226803 40.736 68.5439894 39.1680157 70.656 36.032L70.848 35.936C71.0186675 35.936 71.199999 36.0479989 71.392 36.272 71.584001 36.4960011 71.68 36.703999 71.68 36.896 71.68 37.3440022 71.0293398 38.4106582 69.728 40.096 68.4266602 41.7813418 67.0560072 43.0879954 65.616 44.016 64.1759928 44.9440046 62.7733402 45.408 61.408 45.408 59.3173229 45.408 57.6000067 44.6026747 56.256 42.992 54.9119933 41.3813253 54.24 39.4773443 54.24 37.28 54.24 34.2079846 55.0453253 30.9973501 56.656 27.648 58.2666747 24.2986499 60.3253208 21.4933446 62.832 19.232 65.3386792 16.9706554 67.658656 15.84 69.792 15.84 71.3280077 15.84 72.5226624 16.2719957 73.376 17.136 74.2293376 18.0000043 74.656 19.1679926 74.656 20.64L74.656 20.64zM70.112 21.728C70.112 19.935991 69.3226746 19.04 67.744 19.04 66.2079923 19.04 64.7680067 20.0853229 63.424 22.176 62.0799933 24.2666771 61.1306694 26.8693178 60.576 29.984 62.368009 29.984 63.9626597 29.6053371 65.36 28.848 66.7573403 28.0906629 67.8986622 27.0026738 68.784 25.584 69.6693378 24.1653262 70.112 22.8800058 70.112 21.728L70.112 21.728zM105.6 16.416L96.512 37.408C95.8719968 38.8586739 95.552 39.9039968 95.552 40.544 95.552 41.0560026 95.7653312 41.312 96.192 41.312 96.8106698 41.312 98.1973226 40.0213462 100.352 37.44 101.333338 36.2666608 101.887999 35.68 102.016 35.68 102.272001 35.68 102.506666 35.8026654 102.72 36.048 102.933334 36.2933346 103.04 36.5333322 103.04 36.768 103.04 37.0666682 102.261341 38.0906579 100.704 39.84 99.1466589 41.5893421 97.6693403 42.9546618 96.272 43.936 94.8746597 44.9173382 93.6960048 45.408 92.736 45.408 90.602656 45.408 89.536 44.4053434 89.536 42.4 89.536 40.5226573 90.431991 37.9200166 92.224 34.592 90.6666589 37.4933478 88.592013 40.0213226 86 42.176 83.407987 44.3306774 81.1520096 45.408 79.232 45.408 78.1439946 45.408 77.2853365 44.9920042 76.656 44.16 76.0266635 43.3279958 75.712 42.1866739 75.712 40.736 75.712 37.9413194 76.8853216 34.7360181 79.232 31.12 81.5786784 27.5039819 84.4586496 24.3413469 87.872 21.632 91.2853504 18.9226531 94.1439885 17.568 96.448 17.568 97.5786723 17.568 98.4959965 17.8026643 99.2 18.272L99.968 16.416C100.288002 15.690663 101.397324 15.328 103.296 15.328 104.853341 15.328 105.632 15.6266637 105.632 16.224L105.6 16.416zM97.664 21.472C97.664 20.1919936 97.1946714 19.552 96.256 19.552 94.4426576 19.552 92.3626784 20.5599899 90.016 22.576 87.6693216 24.5920101 85.6160088 27.0719853 83.856 30.016 82.0959912 32.9600147 81.216 35.402657 81.216 37.344 81.216 38.4960058 81.3973315 39.3173309 81.76 39.808 82.1226685 40.2986691 82.7306624 40.544 83.584 40.544 84.6720054 40.544 86.3519886 39.3013458 88.624 36.816 90.8960114 34.3306542 92.9706573 31.5093491 94.848 28.352 96.7253427 25.1946509 97.664 22.9013405 97.664 21.472L97.664 21.472zM132.128 19.424C132.128 20.490672 131.829336 21.3439968 131.232 21.984 130.634664 22.6240032 129.909338 22.944 129.056 22.944 128.287996 22.944 127.552004 22.5493373 126.848 21.76 126.250664 21.0986634 125.685336 20.768 125.152 20.768 123.829327 20.768 121.85068 22.9333117 119.216 27.264 116.58132 31.5946883 113.866681 37.0239674 111.072 43.552 110.773332 44.277337 109.813341 44.64 108.192 44.64 107.637331 44.64 107.130669 44.5493342 106.672 44.368 106.213331 44.1866658 105.984 43.9680013 105.984 43.712L106.016 43.552 112.736 23.84C113.290669 22.1759917 113.568 21.1306688 113.568 20.704 113.568 20.1919974 113.354669 19.936 112.928 19.936 112.24533 19.936 111.029342 21.0879885 109.28 23.392 108.426662 24.5013389 107.914668 25.056 107.744 25.056 107.445332 25.056 107.189334 24.9333346 106.976 24.688 106.762666 24.4426654 106.656 24.2026678 106.656 23.968 106.656 23.6693318 107.359993 22.7040082 108.768 21.072 110.176007 19.4399918 111.535993 18.1600046 112.848 17.232 114.160007 16.3039954 115.295995 15.84 116.256 15.84 118.474678 15.84 119.584 16.7999904 119.584 18.72 119.584 19.786672 119.24267 21.3013235 118.56 23.264L117.344 26.72C121.397354 19.4666304 124.959985 15.84 128.032 15.84 129.226673 15.84 130.207996 16.1653301 130.976 16.816 131.744004 17.4666699 132.128 18.3359946 132.128 19.424L132.128 19.424zM160.224 20.064C160.224 21.4933405 159.776004 23.2639894 158.88 25.376L153.824 37.408C153.098663 39.1573421 152.736 40.202665 152.736 40.544 152.736 41.0560026 152.927998 41.312 153.312 41.312 154.080004 41.312 155.434657 40.149345 157.376 37.824 158.250671 36.7786614 158.773332 36.256 158.944 36.256 159.200001 36.256 159.423999 36.3733322 159.616 36.608 159.808001 36.8426678 159.904 37.0879987 159.904 37.344 159.904 37.7066685 159.157341 38.6826587 157.664 40.272 156.170659 41.8613413 154.70934 43.1146621 153.28 44.032 151.85066 44.9493379 150.624005 45.408 149.6 45.408 148.682662 45.408 147.952003 45.2000021 147.408 44.784 146.863997 44.3679979 146.592 43.7866704 146.592 43.04 146.592 41.8239939 147.061329 40.1173443 148 37.92L153.184 25.568C153.781336 24.1813264 154.08 23.0293379 154.08 22.112 154.08 20.9173274 153.589338 20.32 152.608 20.32 151.413327 20.32 149.648012 21.8666512 147.312 24.96 144.975988 28.0533488 142.368014 32.2239738 139.488 37.472L137.376 43.552C137.269333 43.8506682 136.87467 44.1066656 136.192 44.32 135.50933 44.5333344 134.837337 44.64 134.176 44.64 133.55733 44.64 132.992003 44.5493342 132.48 44.368 131.967997 44.1866658 131.712 43.9680013 131.712 43.712L131.744 43.552 138.4 23.84C138.954669 22.3679926 139.232 21.3226698 139.232 20.704 139.232 20.1919974 139.040002 19.936 138.656 19.936 137.97333 19.936 136.768009 21.0559888 135.04 23.296 134.143996 24.4693392 133.600001 25.056 133.408 25.056 133.130665 25.056 132.890668 24.9333346 132.688 24.688 132.485332 24.4426654 132.384 24.2026678 132.384 23.968 132.384 23.6693318 133.087993 22.7040082 134.496 21.072 135.904007 19.4399918 137.263993 18.1600046 138.576 17.232 139.888007 16.3039954 141.023995 15.84 141.984 15.84 144.160011 15.84 145.248 16.7999904 145.248 18.72 145.248 19.8933392 144.928003 21.4079907 144.288 23.264L142.368 28.704C144.821346 24.629313 147.237321 21.4666779 149.616 19.216 151.994679 16.9653221 154.165324 15.84 156.128 15.84 157.280006 15.84 158.250663 16.2346627 159.04 17.024 159.829337 17.8133373 160.224 18.8266605 160.224 20.064L160.224 20.064zM2.148 117L14.564 117 14.564 105.416 19.108 100.36 30.372 117 45.284 117 27.748 91.464 44.708 72.2 29.988 72.2 14.564 90.376 14.564 72.2 2.148 72.2 2.148 117zM49.164 79.24L61.836 79.24 61.836 70.28 49.164 70.28 49.164 79.24zM49.42 117L61.58 117 61.58 82.376 49.42 82.376 49.42 117zM69.364 117L81.524 117 81.524 106.248C81.524 98.248 85.108 94.6 91.444 94.6L92.468 94.6 92.468 81.8C86.708 81.544 83.508 84.616 81.524 89.352L81.524 82.376 69.364 82.376 69.364 117zM120.476 117.768C128.668 117.768 135.772 110.92 135.772 99.656L135.772 99.528C135.772 88.456 128.668 81.608 120.412 81.608 115.228 81.608 112.284 84.104 109.916 86.984L109.916 70.28 97.756 70.28 97.756 117 109.916 117 109.916 112.776C112.156 115.4 115.228 117.768 120.476 117.768L120.476 117.768zM116.7 107.592C112.796 107.592 109.66 104.328 109.66 99.72L109.66 99.592C109.66 95.048 112.796 91.784 116.7 91.784 120.668 91.784 123.804 95.048 123.804 99.592L123.804 99.72C123.804 104.392 120.668 107.592 116.7 107.592L116.7 107.592zM152.26 127.432C159.172 127.432 162.436 124.232 165.444 116.168L178.116 82.376 165.636 82.376 159.108 103.24 152.196 82.376 139.46 82.376 153.028 116.36C152.26 117.448 151.428 117.768 150.212 117.768 148.868 117.768 146.82 117.064 144.9 115.912L141.124 124.424C144.324 126.216 147.972 127.432 152.26 127.432L152.26 127.432z"/>
    <rect width="180" height="8" y="138" fill="#D0011B" transform="matrix(1 0 0 -1 0 284)"/>
  </g>
</svg>
